# xmcd
#
# Track frame offsets:
#	180
#	16524
#	32987
#	49098
#	65812
#	85124
#	104851
#	120287
#	139756
#	155826
#	172651
#	188111
#	203195
#	220974
#	235793
#	250536
#	262922
#
# Disc length: 3706 seconds
#
# Revision: 0
# Processed by: cddbd v1.5.2PL0 Copyright (c) Steve Scherf et al.
# Submitted via: audiograbber 1.83.01
#
DISCID=e40e7811
DTITLE=Glory Train - 072 Yehoshua
DYEAR=2008
DGENRE=Christian
TTITLE0=Face To Face With Grace  - David Nall
TTITLE1=Are You An Angel  - The Springs
TTITLE2=Up In Glory  - The Puffers
TTITLE3=Trading My Sorrows  - Jo-el Curtis
TTITLE4=One More Time Let Me Tell You  - Marvin Morrow
TTITLE5=Did You Hear (what Jesus Said)  - Joe Selby
TTITLE6=Fields Of The Harvest  - The Rarely Herd
TTITLE7=Walking My Lord Up Calvary´s Hill  - The Morris Brothers
TTITLE8=Welcome Home  - Jimmy Price
TTITLE9=Holy Ghost Train To Glory  - Jimmy Price
TTITLE10=God´s Country Of Love  - Ron Thompson
TTITLE11=My Heart My Love My Life  - Bob Wilson
TTITLE12=It Must Be Love  - Alan Atkins
TTITLE13=I´m Free  - Down Pour
TTITLE14=Santa Looked A Lot Like Daddy  - David Nall
TTITLE15=A Chicken Eating Christmas  - Ron Thompson
TTITLE16=Merry Christmas To The Savior  - Robert Shields
EXTD=
EXTT0=
EXTT1=
EXTT2=
EXTT3=
EXTT4=
EXTT5=
EXTT6=
EXTT7=
EXTT8=
EXTT9=
EXTT10=
EXTT11=
EXTT12=
EXTT13=
EXTT14=
EXTT15=
EXTT16=
PLAYORDER=
